# xmcd
#
# Track frame offsets: 
#        150
#        16072
#        32799
#        58750
#        75780
#        104349
#        116452
#        137304
#        162748
#        185008
#        205364
#        226987
#        245392
#        264045
#        280315
#
# Disc length: 4142 seconds
#
# Revision: 0
# Processed by: cddbd v1.5.2PL0 Copyright (c) Steve Scherf et al.
# Submitted via: ExactAudioCopy v0.95b4
#
DISCID=c0102c0f
DTITLE=Various Artist - 2004 Phono Compilation Vol.4
DYEAR=2004
DGENRE=Rock
TTITLE0=Edguy - King Of Fool
TTITLE1=Thunderstone - Me, My Enemy
TTITLE2=Last Autumn`s Dream - Again and Again
TTITLE3=Marty Friedman - Gimme A Dose
TTITLE4=Exodus - Blacklist
TTITLE5=Cocobat - Unbrage you
TTITLE6=Devin Townsend - Slow Me Down
TTITLE7=Rage - Soundchaser
TTITLE8=Kreator - Violent Revolution
TTITLE9=Raunchy - Watch Out
TTITLE10=Shadow`s Fall - The Art Of Balance
TTITLE11=In Flames - Trigger
TTITLE12=Arch Enemy - We Will Rise
TTITLE13=Soilwork - Rejection Role
TTITLE14=Epica - Cry For The Moon
EXTD=
EXTT0=
EXTT1=
EXTT2=
EXTT3=
EXTT4=
EXTT5=
EXTT6=
EXTT7=
EXTT8=
EXTT9=
EXTT10=
EXTT11=
EXTT12=
EXTT13=
EXTT14=
PLAYORDER=
